<?xml version="1.0" encoding="UTF-8" standalone="no"?>
<!-- Created with Inkscape (http://www.inkscape.org/) -->

<svg
   width="48"
   height="48"
   version="1.1"
   viewBox="0 0 12.7 12.7"
   id="svg13"
   sodipodi:docname="org.prismlauncher.PrismLauncher.svg"
   inkscape:export-filename="org.prismlauncher.PrismLauncher.png"
   inkscape:export-xdpi="96"
   inkscape:export-ydpi="96"
   inkscape:version="1.4 (e7c3feb100, 2024-10-09)"
   xmlns:inkscape="http://www.inkscape.org/namespaces/inkscape"
   xmlns:sodipodi="http://sodipodi.sourceforge.net/DTD/sodipodi-0.dtd"
   xmlns="http://www.w3.org/2000/svg"
   xmlns:svg="http://www.w3.org/2000/svg"
   xmlns:rdf="http://www.w3.org/1999/02/22-rdf-syntax-ns#"
   xmlns:cc="http://creativecommons.org/ns#"
   xmlns:dc="http://purl.org/dc/elements/1.1/">
  <defs
     id="defs13" />
  <sodipodi:namedview
     id="namedview13"
     pagecolor="#ffffff"
     bordercolor="#000000"
     borderopacity="0.25"
     inkscape:showpageshadow="2"
     inkscape:pageopacity="0.0"
     inkscape:pagecheckerboard="0"
     inkscape:deskcolor="#d1d1d1"
     showguides="true"
     inkscape:zoom="16"
     inkscape:cx="25.78125"
     inkscape:cy="19.8125"
     inkscape:window-width="1920"
     inkscape:window-height="1022"
     inkscape:window-x="0"
     inkscape:window-y="0"
     inkscape:window-maximized="1"
     inkscape:current-layer="g10" />
  <title
     id="title1">Prism Launcher Logo</title>
  <g
     stroke-width=".26458"
     id="g10">
    <path
       d="m6.35 6.35"
       fill="#99cd61"
       id="path1" />
    <path
       id="path8"
       style="stroke:none;fill:#511515;fill-opacity:1"
       d="M 3.8292236 4.8947917 L 1.308964 9.2604167 C 1.600004 9.7645167 5.768 12.170833 6.35 12.170833 C 6.932012 12.170833 11.099991 9.7645167 11.391036 9.2604167 L 8.8707764 4.8947917 L 6.35 6.35 L 3.8292236 4.8947917 z " />
    <path
       d="m1.309 3.4396c-0.29104 0.5041-0.29104 5.3167 0 5.8208l5.041-2.9104v-2.9104h-5.041z"
       fill="#7a573b"
       id="path9"
       style="fill:#723232;fill-opacity:1" />
    <path
       d="m 11.391103,3.4395967 c 0.291046,0.5041 0.291046,5.3166997 0,5.8207997 L 6.35,6.3499964 V 3.4395967 Z"
       fill="#7a573b"
       id="path9-6"
       style="fill:#723232;fill-opacity:1;stroke-width:0.264583" />
    <path
       id="path10"
       style="fill:#14b485;fill-opacity:1"
       d="M 6.35 0.52916667 C 5.76792 0.52916665 1.599964 2.9354833 1.308964 3.4395833 L 6.35 6.35 L 11.391036 3.4395833 C 11.100031 2.9354833 6.932092 0.52916667 6.35 0.52916667 z " />
  </g>
  <g
     transform="matrix(.88 0 0 .88 -10.906 -1.2421)"
     id="g12">
    <g
       transform="translate(13.26 2.2776)"
       id="g11">
      <path
         transform="matrix(.96975 0 0 .96975 .1921 .1921)"
         d="m6.3498 2.9393c-0.34105 0-2.7827 1.4099-2.9532 1.7052l2.9532 5.1157 2.9538-5.1157c-0.17052-0.29535-2.6127-1.7052-2.9538-1.7052z"
         fill="#fff"
         stroke-width=".26458"
         id="path11" />
    </g>
    <path
       d="m16.746 6.9737 2.8639 4.9609c0.33073 0 2.6991-1.3672 2.8644-1.6536 0.16536-0.28642 0.16536-3.0209 0-3.3073l-2.8644 1.6536z"
       fill="#dfdfdf"
       stroke-width=".26458"
       id="path12" />
  </g>
  <path
     d="m3.8299 4.8948c-0.14551 0.25205-0.14553 2.6584 0 2.9104 0.14553 0.25204 2.2292 1.4552 2.5203 1.4552v-2.9104z"
     fill="#d6d2d2"
     stroke-width=".26458"
     id="path13" />
  <metadata
     id="metadata13">
    <rdf:RDF>
      <cc:Work
         rdf:about="">
        <dc:title>Prism Launcher Logo</dc:title>
        <dc:date>19/10/2022</dc:date>
        <dc:creator>
          <cc:Agent>
            <dc:title>Prism Launcher</dc:title>
          </cc:Agent>
        </dc:creator>
        <dc:contributor>
          <cc:Agent>
            <dc:title>AutiOne, Boba, ely, Fulmine, gon sawa, Pankakes, tobimori, Zeke</dc:title>
          </cc:Agent>
        </dc:contributor>
        <dc:source>https://github.com/PrismLauncher/PrismLauncher</dc:source>
        <dc:publisher>
          <cc:Agent>
            <dc:title>Prism Launcher</dc:title>
          </cc:Agent>
        </dc:publisher>
        <cc:license
           rdf:resource="http://creativecommons.org/licenses/by-sa/4.0/" />
      </cc:Work>
      <cc:License
         rdf:about="http://creativecommons.org/licenses/by-sa/4.0/">
        <cc:permits
           rdf:resource="http://creativecommons.org/ns#Reproduction" />
        <cc:permits
           rdf:resource="http://creativecommons.org/ns#Distribution" />
        <cc:requires
           rdf:resource="http://creativecommons.org/ns#Notice" />
        <cc:requires
           rdf:resource="http://creativecommons.org/ns#Attribution" />
        <cc:permits
           rdf:resource="http://creativecommons.org/ns#DerivativeWorks" />
        <cc:requires
           rdf:resource="http://creativecommons.org/ns#ShareAlike" />
      </cc:License>
    </rdf:RDF>
  </metadata>
</svg>
